<svg aria-hidden="true" style="position: absolute; width: 0; height: 0; overflow: hidden;" version="1.1" xmlns="http://www.w3.org/2000/svg" xmlns:xlink="http://www.w3.org/1999/xlink">
<defs>
<symbol id="basket" viewBox="0 0 34 32">
<path stroke-linejoin="miter" stroke-linecap="round" stroke-miterlimit="4" stroke-width="1.6" d="M11.771 16v-5.333c0-0 0-0.001 0-0.002 0-2.945 2.388-5.333 5.333-5.333 0.001 0 0.001 0 0.002 0h-0c2.945 0 5.333 2.388 5.333 5.333 0 0.001 0 0.001 0 0.002v-0 5.333"></path>
<path stroke-linejoin="miter" stroke-linecap="butt" stroke-miterlimit="4" stroke-width="1.6" d="M5.949 17.869c0.234-2.786 0.349-4.179 1.267-5.024s2.317-0.845 5.112-0.845h9.555c2.795 0 4.192 0 5.11 0.845 0.92 0.845 1.035 2.238 1.267 5.024l0.555 6.666c0.136 1.621 0.203 2.432-0.272 2.949s-1.29 0.517-2.917 0.517h-17.045c-1.627 0-2.44 0-2.915-0.517s-0.408-1.328-0.272-2.949l0.554-6.666z"></path>
</symbol>
<symbol id="edit" viewBox="0 0 32 32">
<path d="M24.874 1.24l-16.254 16.256c-1.206 1.199-1.952 2.86-1.952 4.694 0 0.007 0 0.014 0 0.021v-0.001 1.79c0 0.737 0.597 1.334 1.334 1.334v0h1.79c0.005 0 0.012 0 0.018 0 1.835 0 3.496-0.746 4.695-1.952l0-0 16.256-16.256c0.752-0.754 1.217-1.794 1.217-2.943s-0.465-2.189-1.217-2.943l0 0c-0.763-0.73-1.801-1.18-2.943-1.18s-2.18 0.45-2.945 1.181l0.002-0.002zM28.874 5.24l-16.254 16.256c-0.725 0.721-1.724 1.167-2.827 1.17h-0.457v-0.456c0.002-1.060 0.422-2.076 1.17-2.828l16.256-16.256c0.274-0.262 0.647-0.424 1.057-0.424s0.783 0.161 1.058 0.424l-0.001-0.001c0.27 0.271 0.436 0.644 0.436 1.057s-0.167 0.786-0.437 1.057l0-0z"></path>
<path d="M30.666 11.972c-0.736 0.001-1.332 0.598-1.332 1.334 0 0 0 0 0 0v0 6.694h-5.334c-2.209 0-4 1.791-4 4v0 5.334h-13.334c-2.209 0-4-1.791-4-4v0-18.668c0-2.209 1.791-4 4-4v0h12.056c0.015 0.001 0.033 0.001 0.052 0.001 0.737 0 1.334-0.597 1.334-1.334s-0.597-1.334-1.334-1.334c-0.018 0-0.036 0-0.054 0.001l0.003-0h-12.056c-3.68 0.005-6.661 2.986-6.666 6.666v18.668c0.005 3.68 2.986 6.661 6.666 6.666h15.124c0.006 0 0.013 0 0.020 0 1.835 0 3.496-0.746 4.695-1.952l0-0 3.54-3.544c1.207-1.201 1.954-2.863 1.954-4.699 0-0.005 0-0.010-0-0.015v0.001-8.484c0-0.001 0-0.001 0-0.002 0-0.736-0.596-1.332-1.332-1.332-0.001 0-0.001 0-0.002 0h0zM24.62 28.162c-0.52 0.52-1.184 0.896-1.927 1.063l-0.026 0.005v-5.23c0-0.737 0.597-1.334 1.334-1.334v0h5.234c-0.176 0.768-0.551 1.431-1.068 1.952l-3.546 3.544z"></path>
</symbol>
<symbol id="favorite" viewBox="0 0 34 32">
<path stroke-linejoin="miter" stroke-linecap="butt" stroke-miterlimit="4" stroke-width="1.6" d="M7.040 18.544l9.27 8.709c0.232 0.218 0.347 0.328 0.474 0.384 0.095 0.043 0.205 0.067 0.322 0.067s0.227-0.025 0.327-0.070l-0.005 0.002c0.125-0.056 0.242-0.166 0.474-0.384l9.27-8.709c1.348-1.269 2.187-3.064 2.187-5.056 0-1.609-0.548-3.091-1.468-4.268l0.012 0.015-0.413-0.531c-2.624-3.382-7.891-2.816-9.736 1.048-0.119 0.242-0.365 0.406-0.648 0.406s-0.529-0.164-0.646-0.402l-0.002-0.004c-1.846-3.864-7.114-4.432-9.738-1.048l-0.413 0.531c-0.908 1.162-1.455 2.643-1.455 4.252 0 1.992 0.84 3.788 2.185 5.054l0.004 0.003z"></path>
</symbol>
<symbol id="phone" viewBox="0 0 32 32">
<path d="M29.56 2.426l-1.4-1.212c-0.747-0.748-1.78-1.21-2.92-1.21s-2.173 0.462-2.92 1.21l-0 0c-0.040 0.040-2.506 3.252-2.506 3.252-1.52 1.6-1.52 4.12 0 5.708l1.546 1.946c-1.946 4.414-4.974 7.454-9.24 9.266l-1.946-1.56c-0.739-0.712-1.745-1.151-2.854-1.151s-2.115 0.439-2.855 1.152l0.001-0.001s-3.212 2.468-3.252 2.508c-1.614 1.612-1.614 4.226-0.068 5.772l1.334 1.534c1.534 1.534 3.6 2.374 5.84 2.374 10.186 0 23.68-13.508 23.68-23.68 0-2.228-0.84-4.308-2.44-5.894v-0.014zM8.32 29.334c-1.52 0-2.92-0.56-3.88-1.534l-1.334-1.534c-0.263-0.265-0.426-0.63-0.426-1.034 0-0.377 0.142-0.72 0.375-0.98l-0.001 0.001s3.186-2.454 3.226-2.494c0.269-0.254 0.633-0.409 1.033-0.409s0.764 0.156 1.034 0.41l-0.001-0.001c0.040 0.040 2.72 2.186 2.72 2.186 0.224 0.181 0.513 0.29 0.827 0.29 0.173 0 0.338-0.033 0.49-0.093l-0.009 0.003c5.52-2.106 9.48-6.052 11.76-11.746 0.059-0.146 0.094-0.316 0.094-0.494 0-0.319-0.111-0.612-0.296-0.842l0.002 0.003s-2.148-2.692-2.174-2.72c-0.266-0.264-0.43-0.629-0.43-1.033s0.164-0.769 0.43-1.033l0-0c0.040-0.040 2.494-3.226 2.494-3.226 0.572-0.52 1.466-0.508 2.080 0.106l1.4 1.214c1.026 1.026 1.6 2.426 1.6 3.946 0 9.28-13.028 21.014-21.014 21.014z"></path>
</symbol>
<symbol id="restock" viewBox="0 0 32 32">
<path d="M32 16c0 8.822-7.178 16-16 16-5.539-0.009-10.418-2.825-13.292-7.102l-0.036-0.058-0.006 1.826c0 0.736-0.597 1.333-1.333 1.333s-1.333-0.597-1.333-1.333v0-3.986c0-1.478 1.2-2.68 2.678-2.68h3.988c0.736 0 1.333 0.597 1.333 1.333s-0.597 1.333-1.333 1.333h-2.182c2.344 4.004 6.619 6.654 11.514 6.668h0.002c7.361-0.008 13.326-5.973 13.334-13.333v-0.001c0-0.736 0.597-1.333 1.333-1.333s1.333 0.597 1.333 1.333v0zM30.666 4c0 0 0 0 0 0-0.736 0-1.332 0.596-1.332 1.332 0 0.001 0 0.001 0 0.002v-0l-0.006 1.806c-2.885-4.328-7.745-7.14-13.263-7.14-0.023 0-0.046 0-0.069 0h0.004c-8.822 0-16 7.178-16 16 0 0.736 0.597 1.333 1.333 1.333s1.333-0.597 1.333-1.333v0c0.008-7.361 5.973-13.326 13.333-13.334h0.001c4.854 0 9.2 2.562 11.554 6.668h-2.22c-0.736 0-1.333 0.597-1.333 1.333s0.597 1.333 1.333 1.333h4c1.472 0 2.666-1.194 2.666-2.666v-4c0-0.001 0-0.001 0-0.002 0-0.736-0.596-1.332-1.332-1.332-0.001 0-0.001 0-0.002 0h0zM13.334 22.666c-2.206 0-4-1.794-4-4v-5.332c0-2.206 1.794-4 4-4h5.332c2.206 0 4 1.794 4 4v5.332c0 2.206-1.794 4-4 4h-5.332zM13.334 20h5.332c0.737 0 1.334-0.597 1.334-1.334v0-5.332c0-0.737-0.597-1.334-1.334-1.334h-5.332c-0.737 0-1.334 0.597-1.334 1.334v0 5.332c0 0.736 0.6 1.334 1.334 1.334zM15.334 16h1.332c0.736 0 1.333-0.597 1.333-1.333s-0.597-1.333-1.333-1.333h-1.332c-0.736 0-1.333 0.597-1.333 1.333s0.597 1.333 1.333 1.333v0z"></path>
</symbol>
<symbol id="search" viewBox="0 0 34 32">
<path stroke-linejoin="miter" stroke-linecap="butt" stroke-miterlimit="4" stroke-width="1.6" d="M23.771 14.667c0 4.418-3.582 8-8 8s-8-3.582-8-8c0-4.418 3.582-8 8-8s8 3.582 8 8z"></path>
<path stroke-linejoin="miter" stroke-linecap="round" stroke-miterlimit="4" stroke-width="1.6" d="M27.773 26.667l-4-4"></path>
</symbol>
<symbol id="shipping-fast" viewBox="0 0 32 32">
<path d="M25.334 6.666h-2.77c-0.47-2.586-2.38-4.627-4.854-5.28l-0.046-0.010c-0.1-0.027-0.214-0.042-0.332-0.042-0.736 0-1.332 0.596-1.332 1.332 0 0.618 0.42 1.137 0.991 1.288l0.009 0.002c1.739 0.46 3 2.019 3 3.873 0 0.002 0 0.004 0 0.005v-0 14.834h-14.666c-1.473-0.001-2.667-1.195-2.668-2.668v-5.334h3.334c0.736 0 1.333-0.597 1.333-1.333s-0.597-1.333-1.333-1.333h-3.334c-1.47 0-2.666 1.196-2.666 2.666v5.334c0 2.506 1.74 4.614 4.074 5.182-0.045 0.244-0.071 0.525-0.071 0.812 0 2.578 2.088 4.668 4.665 4.672h0c2.576-0.005 4.663-2.095 4.663-4.672 0-0.233-0.017-0.462-0.050-0.685l0.003 0.025h5.432c-0.030 0.199-0.047 0.428-0.047 0.662 0 2.578 2.088 4.668 4.665 4.672h0c2.577-0.005 4.663-2.095 4.663-4.672 0-0.288-0.026-0.569-0.076-0.843l0.004 0.029c2.354-0.59 4.070-2.685 4.074-5.182v-6.666c-0.003-3.681-2.986-6.663-6.666-6.668h-0zM29.334 13.334v1.332h-6.668v-5.332h2.668c2.204 0 4 1.794 4 4zM10.666 26c-0.049 1.067-0.926 1.913-2 1.913s-1.951-0.846-2-1.908l-0-0.004c0-0.252 0.050-0.474 0.122-0.666h3.76c0.070 0.192 0.12 0.414 0.12 0.666zM23.334 28c-1.104 0-2-0.898-2-2 0-0.252 0.048-0.474 0.12-0.666h3.76c0.072 0.192 0.12 0.414 0.12 0.666 0 1.102-0.898 2-2 2zM26.666 22.666h-4v-5.332h6.668v2.666c0 1.47-1.196 2.666-2.668 2.666zM0 2.666c0-0.736 0.596-1.332 1.334-1.332h10.872c0.736 0 1.333 0.597 1.333 1.333s-0.597 1.333-1.333 1.333v0h-10.872c-0.001 0-0.001 0-0.002 0-0.736 0-1.332-0.596-1.332-1.332 0-0.001 0-0.001 0-0.002v0zM0 8c0-0.736 0.596-1.334 1.334-1.334h8.204c0.737 0 1.334 0.597 1.334 1.334s-0.597 1.334-1.334 1.334v0h-8.204c-0.001 0-0.001 0-0.002 0-0.736 0-1.332-0.596-1.332-1.332 0-0.001 0-0.001 0-0.002v0z"></path>
</symbol>
<symbol id="user" viewBox="0 0 34 32">
<path stroke-linejoin="miter" stroke-linecap="round" stroke-miterlimit="4" stroke-width="1.6" d="M27.408 27.264c-0.608-1.702-1.946-3.205-3.808-4.277-1.864-1.072-4.147-1.654-6.496-1.654-2.347 0-4.629 0.582-6.493 1.654-1.862 1.072-3.2 2.576-3.808 4.275"></path>
<path stroke-linejoin="miter" stroke-linecap="round" stroke-miterlimit="4" stroke-width="1.6" d="M22.438 10.667c0 2.945-2.388 5.333-5.333 5.333s-5.333-2.388-5.333-5.333c0-2.945 2.388-5.333 5.333-5.333s5.333 2.388 5.333 5.333z"></path>
</symbol>
<symbol id="burger" viewBox="0 0 32 32">
<path stroke-linejoin="miter" stroke-linecap="round" stroke-miterlimit="4" stroke-width="1.92" d="M3.2 25.6h25.6M3.2 16h25.6M3.2 6.4h25.6"></path>
</symbol>
<symbol id="close" viewBox="0 0 32 32">
<path d="M5.333 25.133l19.8-19.8 1.413 1.413-19.8 19.8-1.413-1.413z"></path>
<path d="M6.747 5.333l19.8 19.8-1.413 1.413-19.8-19.8 1.413-1.413z"></path>
</symbol>
<symbol id="facebook" viewBox="0 0 32 32">
<path d="M18.16 31.937h-5.134c-0.857 0-1.555-0.696-1.555-1.552v-11.559h-2.995c-0.857 0-1.555-0.697-1.555-1.552v-4.953c0-0.856 0.697-1.552 1.554-1.552h2.997v-2.48c0-2.459 0.774-4.552 2.237-6.050 1.471-1.505 3.525-2.302 5.943-2.302l3.914 0.007c0.857 0.001 1.554 0.697 1.554 1.552v4.599c-0.001 0.857-0.697 1.552-1.554 1.552-0 0-0.001 0-0.001 0l-2.637 0.001c-0.805 0-1.009 0.16-1.053 0.21-0.073 0.081-0.159 0.313-0.159 0.951v1.96h3.649c0.274 0 0.542 0.069 0.77 0.194 0.493 0.275 0.8 0.797 0.8 1.359l-0.002 4.952c-0.001 0.857-0.697 1.552-1.554 1.552 0 0 0 0 0 0h-3.664v11.559c0 0.857-0.697 1.552-1.554 1.552zM13.35 30.062h4.487v-12.074c0-0.571 0.465-1.037 1.038-1.037h4.178l0.002-4.305h-4.181c0 0 0 0 0 0-0.573 0-1.038-0.464-1.039-1.036v-2.8c0-0.731 0.075-1.566 0.629-2.192 0.671-0.758 1.726-0.846 2.462-0.846h2.312v-3.952l-3.59-0.006c-3.885 0-6.297 2.481-6.297 6.475v3.32c0 0.571-0.466 1.037-1.039 1.037h-3.513v4.305h3.513c0.571 0 1.038 0.464 1.038 1.035v12.075z"></path>
</symbol>
<symbol id="instagram" viewBox="0 0 32 32">
<path stroke-linejoin="miter" stroke-linecap="butt" stroke-miterlimit="10" stroke-width="2.0571" d="M30.75 16c-0.005 1.448-0.018 2.833-0.039 4.215l0.003-0.269c-0.023 1.586-0.046 3.175-0.446 4.734-0.416 1.637-1.239 3.047-2.52 4.091-1.349 1.101-2.981 1.679-4.742 1.785-1.962 0.124-4.255 0.194-6.564 0.194-0.155 0-0.31-0-0.465-0.001l0.024 0c-0.132 0.001-0.288 0.001-0.444 0.001-2.309 0-4.602-0.070-6.877-0.209l0.312 0.015c-1.76-0.106-3.391-0.686-4.741-1.785-1.28-1.045-2.103-2.455-2.521-4.091-0.398-1.559-0.423-3.147-0.445-4.734-0.018-1.315-0.033-2.631-0.035-3.946 0.002-1.314 0.017-2.631 0.035-3.946 0.023-1.586 0.046-3.175 0.445-4.734 0.417-1.637 1.24-3.047 2.52-4.091 1.349-1.101 2.981-1.679 4.741-1.785 1.962-0.124 4.254-0.194 6.563-0.194 0.157 0 0.313 0 0.469 0.001l-0.024-0c0.132-0.001 0.288-0.001 0.444-0.001 2.309 0 4.601 0.070 6.875 0.209l-0.312-0.015c1.76 0.106 3.392 0.686 4.742 1.785 1.28 1.045 2.103 2.455 2.521 4.091 0.398 1.559 0.423 3.147 0.445 4.734 0.017 1.315 0.032 2.631 0.035 3.946z"></path>
<path stroke-linejoin="miter" stroke-linecap="butt" stroke-miterlimit="10" stroke-width="2.0571" d="M22.501 16c0 3.625-2.938 6.563-6.563 6.563s-6.563-2.938-6.563-6.563v0c0-3.625 2.938-6.563 6.563-6.563s6.563 2.938 6.563 6.563v0z"></path>
<path d="M26.501 7.562c0 1.036-0.84 1.875-1.875 1.875s-1.875-0.84-1.875-1.875v0c0-1.036 0.84-1.875 1.875-1.875s1.875 0.84 1.875 1.875v0z"></path>
</symbol>
<symbol id="tik-tok" viewBox="0 0 32 32">
<path stroke-linejoin="round" stroke-linecap="round" stroke-miterlimit="10" stroke-width="1.9429" d="M29.054 7.966c-3.882 0-7.029-3.147-7.029-7.029v0h-5.022v20.585c0 0 0 0.001 0 0.001 0 2.496-2.023 4.519-4.519 4.519s-4.519-2.023-4.519-4.519c0-2.496 2.023-4.519 4.519-4.519v0-5.022c-5.268 0-9.539 4.271-9.539 9.539s4.271 9.539 9.539 9.539c5.268 0 9.539-4.27 9.539-9.538v-10.799c1.944 1.414 4.379 2.263 7.012 2.263 0.006 0 0.012 0 0.019 0h-0.001v-5.022z"></path>
</symbol>
<symbol id="arrow" viewBox="0 0 19 32">
<path d="M3.915 2.405l14.752 13.581-14.752 13.608-1.76-1.907 12.683-11.699-12.68-11.675 1.757-1.909z"></path>
</symbol>
<symbol id="polbuty" viewBox="0 0 32 32">
<path stroke-linejoin="round" stroke-linecap="round" stroke-miterlimit="10" stroke-width="0.7111" d="M20.293 15.989s0.987 0.395 4.341 0.229c3.355-0.16 3.797-0.805 3.797-0.805s1.163 0.219 0.784 1.152c-0.293 0.72-3.856 2.784-6.939 2.693-3.077-0.091-6.859-0.987-9.211-1.184s-9.691-0.267-10.256-0.816c-0.565-0.549-0.635-1.275-0.443-2.656s0.955-2.747 0.955-2.747 2.688 1.573 6.928 2.4c4.24 0.827 5.888 1.104 5.888 1.104"></path>
<path stroke-linejoin="round" stroke-linecap="round" stroke-miterlimit="10" stroke-width="0.7111" d="M18.027 10.235l-2.256 6.475 4.181 0.496s0.635-2.165 0.784-3.061c0.149-0.896 0.123-1.707 0.123-1.707l-2.832-2.203zM20.992 12.971s1.392 0.896 2.576 1.136 4.053 0.528 4.053 0.528M17.638 10.347l-1.542-1.259s-1.728 2.149-1.173 3.323c0.556 1.173 1.467 1.952 1.467 1.952"></path>
<path stroke-linejoin="round" stroke-linecap="round" stroke-miterlimit="10" stroke-width="0.7111" d="M16.389 14.357s-5.499-0.992-8.309-1.904c-2.811-0.912-3.808-1.723-4.405-1.477s-0.352 0.885-0.352 0.885M20.64 14.901s3.173 0.405 4.741 0.123c1.568-0.277 2.213-0.368 2.672-0.485s0.784 0.469 0.496 0.832M2.331 17.339l0.181 4.955s0.965 0.389 3.947 0.565 4.229-0.459 4.229-0.459l-0.064-1.739s1.899 0.192 3.211 0.309c1.312 0.112 3.035 0.475 3.035 0.475l0.037 1.093s3.456 0.48 7.275 0.224c3.819-0.261 6.021-3.115 6.021-3.115s-0.059-1.557-0.203-2.219-0.789-0.853-0.789-0.853"></path>
<path stroke-linejoin="round" stroke-linecap="round" stroke-miterlimit="10" stroke-width="0.3556" d="M2.363 18.229s0.56 0.491 4.235 0.635c3.675 0.144 4.805-0.069 7.259 0.283s6.4 1.184 9.088 1.088c2.688-0.096 4.571-1.056 5.472-1.483 0.564-0.28 1.028-0.686 1.368-1.183l0.008-0.012"></path>
</symbol>
<symbol id="jazzowki" viewBox="0 0 32 32">
<path stroke-linejoin="miter" stroke-linecap="butt" stroke-miterlimit="10" stroke-width="0.7111" d="M2.805 11.28c0.448-0.48 3.099 2.405 5.989 2.197s4.752-3.744 5.893-3.648c1.472 0.123 5.216 4.789 8.336 5.179s7.003 0.453 7.301 2.507c0.112 0.768-7.157 3.296-12.069 2.789-4.416-0.453-5.947-0.928-8.704-1.035s-6.448 0.448-6.992-0.683c-0.544-1.131-0.827-1.872-0.656-3.573s0.56-3.403 0.901-3.733z"></path>
<path stroke-linejoin="round" stroke-linecap="round" stroke-miterlimit="10" stroke-width="0.7111" d="M2.56 18.587l0.027 2.949h7.157v-1.163s1.317 0.032 6.352 0.773c8.597 1.264 14.523-2.416 14.523-2.416v-1.253l-0.976 0.645"></path>
<path stroke-linejoin="miter" stroke-linecap="round" stroke-miterlimit="10" stroke-width="0.3556" d="M10.933 19.365s2.389-3.829 8.421-3.184c0.245-2.144 0.256-2.8 0.256-2.8"></path>
<path stroke-linejoin="miter" stroke-linecap="round" stroke-miterlimit="10" stroke-width="0.7111" d="M14.804 11.819l0.928-1.328M16.362 13.040l0.928-1.328M17.84 14.213l0.927-1.323"></path>
<path stroke-linejoin="miter" stroke-linecap="butt" stroke-miterlimit="10" stroke-width="0.3556" d="M25.396 15.296c-2.517 2.181-2.427 4.731-2.427 4.731"></path>
<path stroke-linejoin="miter" stroke-linecap="round" stroke-miterlimit="10" stroke-width="0.3556" d="M9.557 18.96s2.085-2.885 4.56-3.536c2.475-0.651 5.211-0.656 5.211-0.656"></path>
</symbol>
<symbol id="czolenka" viewBox="0 0 32 32">
<path stroke-linejoin="round" stroke-linecap="butt" stroke-miterlimit="10" stroke-width="0.7111" d="M4.752 6.171c0.256 0 0.64 0.933 2.043 2.651s3.509 4.32 4.976 6.085c1.243 1.499 2.912 3.781 6.149 5.136 3.152 1.323 4.368-1.072 4.368-1.072s1.291 0.432 2.688 0.677 6.235 0.635 4.747 2.576c-1.488 1.941-8.645 3.573-10.075 3.573-1.424 0-3.365-0.304-4.459-1.093s-2.992-4.064-3.883-4.971c-0.891-0.907-3.669-3.461-4.491-3.365-0.821 0.091-0.971 0.667-1.029 1.819s0.181 7.099 0.181 7.099h-1.579s-0.032-2.843-0.789-6.123-0.821-2.917-1.579-5.771 2.219-7.221 2.731-7.221z"></path>
<path stroke-linejoin="miter" stroke-linecap="butt" stroke-miterlimit="10" stroke-width="0.7111" d="M2.085 13.632c2 1.669 3.936 1.621 5.963 3.296M4.352 24.032h1.579"></path>
</symbol>
<symbol id="baleriny" viewBox="0 0 32 32">
<path stroke-linejoin="round" stroke-linecap="round" stroke-miterlimit="10" stroke-width="0.7111" d="M3.109 10.917c2.325 1.397 8.069 3.344 8.069 3.344s3.925 1.515 7.323 2.219c3.392 0.704 4.144-1.68 4.144-1.68s1.397 0.928 3.643 0.912c2.245-0.021 3.12-0.080 3.648 0.464s0.843 1.317 0.416 2.224c-0.427 0.907-5.136 2.875-9.323 2.672s-6.715-1.435-11.488-1.84c-4.501-0.384-7.019-0.587-7.179-0.811s-0.565-1.493-0.405-4.005c0.16-2.512 0.992-3.76 1.152-3.499z"></path>
<path stroke-linejoin="round" stroke-linecap="round" stroke-miterlimit="10" stroke-width="0.4444" d="M2.363 18.421v2.021h7.829l-0.021-1.056"></path>
<path stroke-linejoin="miter" stroke-linecap="round" stroke-miterlimit="10" stroke-width="0.3556" d="M2.427 11.915c0.064 0.032 0.133 0.064 0.213 0.101"></path>
<path stroke-linejoin="miter" stroke-linecap="round" stroke-miterlimit="10" stroke-width="0.3556" d="M3.621 12.448c2.683 1.141 7.803 3.12 9.371 3.579 2.917 0.859 5.877 1.867 7.371 1.664 1.232-0.165 2.165-0.784 2.816-1.776"></path>
<path stroke-linejoin="miter" stroke-linecap="round" stroke-miterlimit="10" stroke-width="0.3556" d="M23.457 15.451c0.037-0.069 0.069-0.139 0.101-0.213"></path>
</symbol>
<symbol id="sandaly" viewBox="0 0 32 32">
<path stroke-linejoin="round" stroke-linecap="round" stroke-miterlimit="10" stroke-width="0.7111" d="M24.651 19.536s1.216-0.032 2.549-0.437c1.333-0.411 3.733-1.349 3.733-1.349v0.971s-2.155 1.397-4.363 2.032c-1.365 0.389-3.189 0.64-5.589 0.64s-8.011-0.848-9.648-0.731c-1.637 0.117-7.253 0.512-9.376-0.549-0.693-0.347-0.272-2.88-0.123-3.035s1.792 0.336 3.973 0.213"></path>
<path stroke-linejoin="round" stroke-linecap="round" stroke-miterlimit="10" stroke-width="0.7111" d="M7.195 12.416c-1.024-0.965-2.213-1.467-3.568-1.829 0.032 0.539 0.069 1.077 0.101 1.616 0.069 0.603 0.069 1.072 0.069 1.696 2.352 1.413 2.507 4.389 2.955 6.933M10.304 20.725c-0.411-2.16-0.853-4.192-1.685-6.229M24.416 21.179s0.688-3.648 0.507-4.677c-0.971-0.635-2.608-1.307-4.245-2-1.216 2.555-4.64 6.331-4.64 6.331"></path>
<path stroke-linejoin="round" stroke-linecap="round" stroke-miterlimit="10" stroke-width="0.7111" d="M14.011 10.587l0.667 2.277s-5.264 1.477-6.037 1.637c-1.003 0.213-1.941 0.395-2.277-0.485s0.683-1.531 1.435-1.733c0.757-0.208 6.213-1.696 6.213-1.696z"></path>
<path stroke-linejoin="miter" stroke-linecap="butt" stroke-miterlimit="10" stroke-width="0.7111" d="M9.547 17.413s2.699 0.437 4.459 1.12 3.099 0.853 3.099 0.853"></path>
<path stroke-linejoin="miter" stroke-linecap="round" stroke-miterlimit="10" stroke-width="0.3556" d="M3.68 11.392c0.96 0.245 2.96 1.536 2.96 1.536"></path>
</symbol>
<symbol id="klapki" viewBox="0 0 32 32">
<path stroke-linejoin="round" stroke-linecap="round" stroke-miterlimit="10" stroke-width="0.7111" d="M30.635 16.971c-1.616 0.288-2.997 0.432-4.549 0.576-0.853 0.080-1.136 0-1.136 0"></path>
<path stroke-linejoin="round" stroke-linecap="round" stroke-miterlimit="10" stroke-width="0.7111" d="M30.635 16.971s0.405 0.923-0.203 1.456c-3.675 3.104-10.507 1.451-11.888 1.269s-2.949-0.144-3.563-0.059-5.685 0.736-9.307 0.395c-1.259-0.112-2-0.053-3.413-0.395-0.491-0.117-0.64-1.328-0.507-2.293 0.544-0.053 2.469 0.133 3.989 0.096s6.389-0.464 7.173-0.464c0.784 0 2.539 0.112 2.539 0.112"></path>
<path stroke-linejoin="round" stroke-linecap="round" stroke-miterlimit="10" stroke-width="0.7111" d="M13.339 19.648s4.672-5.536 6.709-8.928c0 0 4.64 2.853 5.051 3.397 0.389 2.389-0.779 6.096-0.779 6.096"></path>
<path stroke-linejoin="miter" stroke-linecap="round" stroke-miterlimit="10" stroke-width="0.3556" d="M14.982 19.637s2.347-2.811 3.312-4.176c0.96-1.365 2.863-4.053 2.863-4.053M23.984 13.536s0.16 1.152-0.128 3.435c-0.293 2.283-0.955 3.237-0.955 3.237"></path>
</symbol>
<symbol id="botki" viewBox="0 0 32 32">
<path stroke-linejoin="round" stroke-linecap="butt" stroke-miterlimit="10" stroke-width="0.7111" d="M3.973 5.819s3.941 1.179 6.245 0.891c2.304-0.283 4.341-0.587 4.341-0.587s2.128 6.288 3.344 8.432c1.216 2.144 3.557 4.064 4.592 4.539 1.317 0.603 2.976 0.72 5.28 1.008s2.549 2.043 2.549 2.811c0 0.768-3.947 1.611-7.493 1.941-3.397 0.32-4.555-0.005-6.789-1.067-2.405-1.147-3.547-2.581-5.771-3.755s-8.272-2.373-8.272-2.373-0.384-1.445-0.181-3.387c0.117-1.125 1.403-3.931 1.685-4.928s0.469-3.525 0.469-3.525z"></path>
<path stroke-linejoin="round" stroke-linecap="butt" stroke-miterlimit="10" stroke-width="0.7111" d="M7.792 18.971v6.768h-4.384l-1.408-8.085"></path>
<path stroke-linejoin="round" stroke-linecap="round" stroke-miterlimit="10" stroke-width="0.7111" d="M7.792 20.405c0.747 0.096 1.765 0.421 4.037 2.123s3.216 2.325 5.328 3.056c2.427 0.843 4.896 0.549 7.243 0.235 3.216-0.427 4.859-1.003 6.309-1.637v-1.456"></path>
<path stroke-linejoin="round" stroke-linecap="butt" stroke-miterlimit="10" stroke-width="0.3556" d="M6.528 6.379s0.363 6.4 1.376 8.037c0.64 1.040 3.648 2.133 5.445 1.765 1.515-0.309 0.651-1.765-0.656-5.952-0.715-2.293-1.061-3.739-1.061-3.739"></path>
</symbol>
<symbol id="kozaki" viewBox="0 0 32 32">
<path stroke-linejoin="miter" stroke-linecap="butt" stroke-miterlimit="10" stroke-width="0.7111" d="M5.2 15.707c-0.475 1.227-1.195 2.656-1.696 4.891-0.496 2.24-0.032 2.699 0.325 3.099 0.757 0.848 5.493 0.997 7.355 2.075 2.485 1.44 4.037 3.499 6.779 4.075s6.16-0.485 7.733-1.157c1.675-0.72 2.976-1.205 3.152-2.144 0.181-0.939-0.683-1.803-2.523-2.016-1.84-0.219-3.568 0.251-4.325-0.075s-2.992-1.984-4.075-3.931c-1.083-1.947-1.179-4.864-1.083-8.325s0.469-10.379 0.469-10.379-2.437-1.371-4.939-1.045c-3.317 0.432-5.803 0.827-7.893 1.12-0.325 2.523 0.395 3.893 0.827 6.272s0.368 6.32-0.107 7.541z"></path>
<path stroke-linejoin="miter" stroke-linecap="butt" stroke-miterlimit="10" stroke-width="0.7111" d="M8.916 24.949l-0.368 5.739s-4.101 0.437-4.555-0.176c-0.453-0.613-0.677-7.813-0.677-7.813M8.832 26.331s1.295 0.155 2.133 0.741c0.836 0.581 4.484 3.301 5.93 3.771s3.824 0.549 5.515 0.176c3.206-0.704 6.124-2.384 6.46-2.901 0.607-0.939-0.022-1.568-0.022-1.568"></path>
<path stroke-linejoin="round" stroke-linecap="butt" stroke-miterlimit="10" stroke-width="0.3556" d="M11.072 0.949s1.029 18.192 1.568 21.003c0.539 2.811 1.872 6.213 1.872 6.213"></path>
<path stroke-linejoin="round" stroke-linecap="round" stroke-miterlimit="10" stroke-width="0.3556" d="M10.315 0.949s1.029 18.192 1.568 21.003c0.538 2.811 1.631 5.568 1.631 5.568"></path>
<path stroke-linejoin="round" stroke-linecap="butt" stroke-miterlimit="10" stroke-width="0.3556" d="M5.301 15.371c2.043 0.688 5.728 5.563 6.96 6.272 2.325 1.339 3.787 1.392 4.651 0.795s0.549-2.96 0.549-2.96M4.779 5.84c1.915 0 4.779-0.768 7.259-0.768s5.072 0.768 5.072 0.768"></path>
</symbol>
<symbol id="outlet" viewBox="0 0 32 32">
<path stroke-linejoin="miter" stroke-linecap="round" stroke-miterlimit="10" stroke-width="0.7111" d="M20.331 17.349c3.673 0 6.651-2.978 6.651-6.651s-2.978-6.651-6.651-6.651v0c-3.673 0-6.651 2.978-6.651 6.651s2.978 6.651 6.651 6.651v0z"></path>
<path d="M16.645 8.949c0-1.125 0.635-1.877 1.563-1.877 0.923 0 1.563 0.741 1.563 1.877s-0.645 1.877-1.563 1.877c-0.928 0.005-1.563-0.747-1.563-1.877zM19.275 8.949c0-0.901-0.427-1.435-1.067-1.435-0.651 0-1.067 0.544-1.067 1.435s0.416 1.435 1.067 1.435c0.645 0 1.067-0.533 1.067-1.435zM22.4 7.12h0.581l-4.731 6.923h-0.581l4.731-6.923zM20.891 12.213c0-1.125 0.645-1.877 1.563-1.877 0.928 0 1.563 0.752 1.563 1.877s-0.635 1.877-1.563 1.877c-0.923 0.005-1.563-0.747-1.563-1.877zM23.52 12.213c0-0.891-0.416-1.435-1.067-1.435-0.645 0-1.067 0.533-1.067 1.435s0.427 1.435 1.067 1.435c0.651 0 1.067-0.544 1.067-1.435z"></path>
<path stroke-linejoin="miter" stroke-linecap="butt" stroke-miterlimit="10" stroke-width="0.7111" d="M5.045 11.264c-0.608 0.245-3.083 3.723-1.952 7.040 0.224 1.328 6.453 2.373 9.152 4.805s2.16 2.576 3.776 3.829c1.616 1.253 6.283 0.704 8.427 0.139s4.363-1.371 5.211-2.261c0.848-0.891 0.149-2.347-1.733-3.077s-4.491-1.616-4.491-1.616-2.347 2.064-4.571 1.659c-2.224-0.405-5.301-3.515-8.091-5.824s-5.12-4.939-5.728-4.693z"></path>
<path stroke-linejoin="miter" stroke-linecap="butt" stroke-miterlimit="10" stroke-width="0.7111" d="M8.88 20.933l-0.768 5.776s-4.315 0.453-4.789-0.437c-0.475-0.885-0.475-9.141-0.475-9.141M3.328 24.901h5.024"></path>
</symbol>
</defs>
</svg>
